<svg width="21" height="20" viewBox="0 0 21 20" fill="none" xmlns="http://www.w3.org/2000/svg">
<path d="M9.4459 0.51262C5.03757 0.991787 1.49174 4.53762 1.01257 8.85012C0.533403 13.3543 3.1209 17.3793 7.05007 18.9126C7.33757 19.0085 7.62507 18.8168 7.62507 18.4335V16.9001C7.62507 16.9001 7.24174 16.996 6.76257 16.996C5.4209 16.996 4.8459 15.846 4.75007 15.1751C4.65424 14.7918 4.46257 14.5043 4.17507 14.2168C3.88757 14.121 3.79174 14.121 3.79174 14.0251C3.79174 13.8335 4.07924 13.8335 4.17507 13.8335C4.75007 13.8335 5.22924 14.5043 5.4209 14.7918C5.90007 15.5585 6.47507 15.7501 6.76257 15.7501C7.1459 15.7501 7.4334 15.6543 7.62507 15.5585C7.7209 14.8876 8.0084 14.2168 8.5834 13.8335C6.37924 13.3543 4.75007 12.1085 4.75007 10.0001C4.75007 8.94595 5.22924 7.89179 5.90007 7.12512C5.80424 6.93345 5.7084 6.45429 5.7084 5.78345C5.7084 5.40012 5.7084 4.82512 5.9959 4.25012C5.9959 4.25012 7.33757 4.25012 8.67924 5.49595C9.1584 5.30429 9.82924 5.20845 10.5001 5.20845C11.1709 5.20845 11.8417 5.30429 12.4167 5.49595C13.6626 4.25012 15.1001 4.25012 15.1001 4.25012C15.2917 4.82512 15.2917 5.40012 15.2917 5.78345C15.2917 6.55012 15.1959 6.93345 15.1001 7.12512C15.7709 7.89179 16.2501 8.85012 16.2501 10.0001C16.2501 12.1085 14.6209 13.3543 12.4167 13.8335C12.9917 14.3126 13.3751 15.1751 13.3751 16.0376V18.5293C13.3751 18.8168 13.6626 19.1043 14.0459 19.0085C17.5917 17.571 20.0834 14.121 20.0834 10.096C20.0834 4.34595 15.1959 -0.158213 9.4459 0.51262Z" fill="#0F0A0A"/>
</svg>
