<svg width="18" height="18" viewBox="0 0 18 18" fill="none" xmlns="http://www.w3.org/2000/svg">
<path d="M17.023 12.488C16.393 12.473 15.6 12.436 15.099 12.348C14.557 12.252 13.905 12.066 13.446 11.923C13.086 11.811 12.694 11.91 12.427 12.176L10.21 14.38C8.678 13.573 7.451 12.633 6.412 11.588C5.367 10.549 4.427 9.322 3.62 7.79L5.824 5.572C6.09 5.305 6.189 4.913 6.077 4.553C5.935 4.095 5.748 3.443 5.653 2.901C5.564 2.4 5.528 1.607 5.512 0.977C5.499 0.432 5.055 0 4.51 0H1C0.562 0 0 0.328 0 1C0 5.539 1.84 9.874 4.966 13.034C8.126 16.16 12.461 18 17 18C17.672 18 18 17.438 18 17V13.49C18 12.945 17.568 12.501 17.023 12.488Z" fill="#0F0A0A"/>
</svg>
